HIERARCHY
ROOT Hips
{
  OFFSET 0 100 0
  CHANNELS 6 Xposition Yposition Zposition Zrotation Xrotation Yrotation
  JOINT LeftUpLeg
  {
    OFFSET 8.91 -6.27 -2.145
    CHANNELS 3 Zrotation Xrotation Yrotation
    JOINT LeftUpLegRoll
    {
      OFFSET 0 -22.7323 0
      CHANNELS 3 Zrotation Xrotation Yrotation
      JOINT LeftLeg
      {
        OFFSET 0 -22.1464 0
        CHANNELS 3 Zrotation Xrotation Yrotation
        JOINT LeftLegRoll
        {
          OFFSET 0 -22.0919 0
          CHANNELS 3 Zrotation Xrotation Yrotation
          JOINT LeftFoot
          {
            OFFSET 0 -18.609 0
            CHANNELS 3 Zrotation Xrotation Yrotation
            JOINT LeftToeBase
            {
              OFFSET 0 -6.26232 12.9547
              CHANNELS 3 Zrotation Xrotation Yrotation
              End Site
              {
                OFFSET 0 0 5.96686
              }
            }
          }
        }
      }
    }
  }
  JOINT RightUpLeg
  {
    OFFSET -8.91 -6.27 -2.145
    CHANNELS 3 Zrotation Xrotation Yrotation
    JOINT RightUpLegRoll
    {
      OFFSET 0 -22.7323 0
      CHANNELS 3 Zrotation Xrotation Yrotation
      JOINT RightLeg
      {
        OFFSET 0 -22.1464 0
        CHANNELS 3 Zrotation Xrotation Yrotation
        JOINT RightLegRoll
        {
          OFFSET 0 -22.0919 0
          CHANNELS 3 Zrotation Xrotation Yrotation
          JOINT RightFoot
          {
            OFFSET 0 -18.609 0
            CHANNELS 3 Zrotation Xrotation Yrotation
            JOINT RightToeBase
            {
              OFFSET 0 -6.26232 12.9547
              CHANNELS 3 Zrotation Xrotation Yrotation
              End Site
              {
                OFFSET 0 0.000942417 5.96686
              }
            }
          }
        }
      }
    }
  }
  JOINT Spine
  {
    OFFSET 0 7.43174 -2.06162
    CHANNELS 3 Zrotation Xrotation Yrotation
    JOINT Spine1
    {
      OFFSET -1.68772e-005 12.1899 -1.41951
      CHANNELS 3 Zrotation Xrotation Yrotation
      JOINT Spine2
      {
        OFFSET 0 11.8846 -1.0903
        CHANNELS 3 Zrotation Xrotation Yrotation
        JOINT Spine3
        {
          OFFSET 1.84329e-005 10.5137 1.04001
          CHANNELS 3 Zrotation Xrotation Yrotation
          JOINT Neck
          {
            OFFSET 0 11.5156 1.94702
            CHANNELS 3 Zrotation Xrotation Yrotation
            JOINT Head
            {
              OFFSET -1.26215e-005 11.0733 1.65432
              CHANNELS 3 Zrotation Xrotation Yrotation
              End Site
              {
                OFFSET 1 0 0
              }
            }
          }
          JOINT LeftShoulder
          {
            OFFSET 7 4.56855 2.0674
            CHANNELS 3 Zrotation Xrotation Yrotation
            JOINT LeftArm
            {
              OFFSET 10.7073 0 0
              CHANNELS 3 Zrotation Xrotation Yrotation
              JOINT LeftArmRoll
              {
                OFFSET 15.2612 0 0
                CHANNELS 3 Zrotation Xrotation Yrotation
                JOINT LeftForeArm
                {
                  OFFSET 12.0443 0 0
                  CHANNELS 3 Zrotation Xrotation Yrotation
                  JOINT LeftForeArmRoll
                  {
                    OFFSET 16.3277 0 0
                    CHANNELS 3 Zrotation Xrotation Yrotation
                    JOINT LeftHand
                    {
                      OFFSET 10.3694 0 0
                      CHANNELS 3 Zrotation Xrotation Yrotation
                      JOINT LeftHandThumb1
                      {
                        OFFSET 4.34876 -0.798502 4.28243
                        CHANNELS 3 Zrotation Xrotation Yrotation
                        JOINT LeftHandThumb2
                        {
                          OFFSET 2.51259 -0.536099 0.707454
                          CHANNELS 3 Zrotation Xrotation Yrotation
                          JOINT LeftHandThumb3
                          {
                            OFFSET 2.54314 0 0
                            CHANNELS 3 Zrotation Xrotation Yrotation
                            JOINT LeftHandThumb4
                            {
                              OFFSET 2.66675 0 0
                              CHANNELS 3 Zrotation Xrotation Yrotation
                              End Site
                              {
                                OFFSET 1 0 0
                              }
                            }
                          }
                        }
                      }
                      JOINT LeftHandIndex1
                      {
                        OFFSET 8.82198 0.199729 3.47167
                        CHANNELS 3 Zrotation Xrotation Yrotation
                        JOINT LeftHandIndex2
                        {
                          OFFSET 4.22532 0 -0.00026266
                          CHANNELS 3 Zrotation Xrotation Yrotation
                          JOINT LeftHandIndex3
                          {
                            OFFSET 2.65394 0 -0.000165163
                            CHANNELS 3 Zrotation Xrotation Yrotation
                            JOINT LeftHandIndex4
                            {
                              OFFSET 1.95822 0 -0.000122167
                              CHANNELS 3 Zrotation Xrotation Yrotation
                              End Site
                              {
                                OFFSET 1 0 0
                              }
                            }
                          }
                        }
                      }
                      JOINT LeftHandMiddle1
                      {
                        OFFSET 8.80988 0.50089 1.30468
                        CHANNELS 3 Zrotation Xrotation Yrotation
                        JOINT LeftHandMiddle2
                        {
                          OFFSET 4.86325 0 0
                          CHANNELS 3 Zrotation Xrotation Yrotation
                          JOINT LeftHandMiddle3
                          {
                            OFFSET 2.76524 0 0
                            CHANNELS 3 Zrotation Xrotation Yrotation
                            JOINT LeftHandMiddle4
                            {
                              OFFSET 2.00563 0 0
                              CHANNELS 3 Zrotation Xrotation Yrotation
                              End Site
                              {
                                OFFSET 1 0 0
                              }
                            }
                          }
                        }
                      }
                      JOINT LeftHandRing1
                      {
                        OFFSET 8.89376 0.37992 -0.793159
                        CHANNELS 3 Zrotation Xrotation Yrotation
                        JOINT LeftHandRing2
                        {
                          OFFSET 4.53776 0 -0.000282138
                          CHANNELS 3 Zrotation Xrotation Yrotation
                          JOINT LeftHandRing3
                          {
                            OFFSET 2.30453 0 -0.000143448
                            CHANNELS 3 Zrotation Xrotation Yrotation
                            JOINT LeftHandRing4
                            {
                              OFFSET 1.92335 0 -0.00012044
                              CHANNELS 3 Zrotation Xrotation Yrotation
                              End Site
                              {
                                OFFSET 1 0 0
                              }
                            }
                          }
                        }
                      }
                      JOINT LeftHandPinky1
                      {
                        OFFSET 8.88227 -0.313027 -2.49036
                        CHANNELS 3 Zrotation Xrotation Yrotation
                        JOINT LeftHandPinky2
                        {
                          OFFSET 3.0441 0 0
                          CHANNELS 3 Zrotation Xrotation Yrotation
                          JOINT LeftHandPinky3
                          {
                            OFFSET 1.9745 0 0
                            CHANNELS 3 Zrotation Xrotation Yrotation
                            JOINT LeftHandPinky4
                            {
                              OFFSET 1.66661 0 0
                              CHANNELS 3 Zrotation Xrotation Yrotation
                              End Site
                              {
                                OFFSET 1 0 0
                              }
                            }
                          }
                        }
                      }
                    }
                  }
                }
              }
            }
          }
          JOINT RightShoulder
          {
            OFFSET -7 4.56855 2.0673
            CHANNELS 3 Zrotation Xrotation Yrotation
            JOINT RightArm
            {
              OFFSET -10.7073 0 0
              CHANNELS 3 Zrotation Xrotation Yrotation
              JOINT RightArmRoll
              {
                OFFSET -15.2612 0 0
                CHANNELS 3 Zrotation Xrotation Yrotation
                JOINT RightForeArm
                {
                  OFFSET -12.0444 0 0
                  CHANNELS 3 Zrotation Xrotation Yrotation
                  JOINT RightForeArmRoll
                  {
                    OFFSET -16.3276 0 0
                    CHANNELS 3 Zrotation Xrotation Yrotation
                    JOINT RightHand
                    {
                      OFFSET -10.3694 0 0
                      CHANNELS 3 Zrotation Xrotation Yrotation
                      JOINT RightHandThumb1
                      {
                        OFFSET -4.34838 -0.798501 4.28282
                        CHANNELS 3 Zrotation Xrotation Yrotation
                        JOINT RightHandThumb2
                        {
                          OFFSET -2.51253 -0.536099 0.707679
                          CHANNELS 3 Zrotation Xrotation Yrotation
                          JOINT RightHandThumb3
                          {
                            OFFSET -2.54159 0 0.0888232
                            CHANNELS 3 Zrotation Xrotation Yrotation
                            JOINT RightHandThumb4
                            {
                              OFFSET -2.66512 0 0.0931403
                              CHANNELS 3 Zrotation Xrotation Yrotation
                              End Site
                              {
                                OFFSET 1 0 0
                              }
                            }
                          }
                        }
                      }
                      JOINT RightHandIndex1
                      {
                        OFFSET -8.82167 0.199732 3.47246
                        CHANNELS 3 Zrotation Xrotation Yrotation
                        JOINT RightHandIndex2
                        {
                          OFFSET -4.22532 0 0.000114599
                          CHANNELS 3 Zrotation Xrotation Yrotation
                          JOINT RightHandIndex3
                          {
                            OFFSET -2.65394 0 7.19639e-005
                            CHANNELS 3 Zrotation Xrotation Yrotation
                            JOINT RightHandIndex4
                            {
                              OFFSET -1.95822 0 5.30975e-005
                              CHANNELS 3 Zrotation Xrotation Yrotation
                              End Site
                              {
                                OFFSET 1 0 0
                              }
                            }
                          }
                        }
                      }
                      JOINT RightHandMiddle1
                      {
                        OFFSET -8.80976 0.500893 1.30547
                        CHANNELS 3 Zrotation Xrotation Yrotation
                        JOINT RightHandMiddle2
                        {
                          OFFSET -4.86325 0 0.000131881
                          CHANNELS 3 Zrotation Xrotation Yrotation
                          JOINT RightHandMiddle3
                          {
                            OFFSET -2.76524 0 7.49839e-005
                            CHANNELS 3 Zrotation Xrotation Yrotation
                            JOINT RightHandMiddle4
                            {
                              OFFSET -2.00563 0 5.4389e-005
                              CHANNELS 3 Zrotation Xrotation Yrotation
                              End Site
                              {
                                OFFSET 1 0 0
                              }
                            }
                          }
                        }
                      }
                      JOINT RightHandRing1
                      {
                        OFFSET -8.89383 0.379922 -0.792364
                        CHANNELS 3 Zrotation Xrotation Yrotation
                        JOINT RightHandRing2
                        {
                          OFFSET -4.53776 0 0.000123052
                          CHANNELS 3 Zrotation Xrotation Yrotation
                          JOINT RightHandRing3
                          {
                            OFFSET -2.30453 0 6.2493e-005
                            CHANNELS 3 Zrotation Xrotation Yrotation
                            JOINT RightHandRing4
                            {
                              OFFSET -1.92335 0 5.2155e-005
                              CHANNELS 3 Zrotation Xrotation Yrotation
                              End Site
                              {
                                OFFSET 1 0 0
                              }
                            }
                          }
                        }
                      }
                      JOINT RightHandPinky1
                      {
                        OFFSET -8.8825 -0.313025 -2.48956
                        CHANNELS 3 Zrotation Xrotation Yrotation
                        JOINT RightHandPinky2
                        {
                          OFFSET -3.0478 0 8.26486e-005
                          CHANNELS 3 Zrotation Xrotation Yrotation
                          JOINT RightHandPinky3
                          {
                            OFFSET -1.9769 0 5.36132e-005
                            CHANNELS 3 Zrotation Xrotation Yrotation
                            JOINT RightHandPinky4
                            {
                              OFFSET -1.66864 0 4.52455e-005
                              CHANNELS 3 Zrotation Xrotation Yrotation
                              End Site
                              {
                                OFFSET 1 0 0
                              }
                            }
                          }
                        }
                      }
                    }
                  }
                }
              }
            }
          }
        }
      }
    }
  }
}
MOTION
Frames:	6
Frame Time:	0.0333333
-37.1383 98.4153 142.368 -0.551883 0.240211 -23.0308 18.6341 -13.9105 16.3553 2.59038e-017 -4.25537e-016 6.96694 -8.48147e-008 39.1864 -1.9314 4.4895e-018 1.77427e-016 -2.89893 -3.81046 2.68659 0.0893878 -6.24943 -13.4281 -1.45674 -4.89343 -6.62268 -1.28724 3.32266e-018 -1.52651e-016 2.49385 -1.41518e-007 19.8543 4.35751 2.28191e-017 -3.99486e-016 6.5385 3.11554 -12.138 0.326759 0.00291259 9.13909e-008 -4.6458e-012 0.545769 0.189065 0.670216 1.19805 0.284938 0.667796 1.1985 0.281039 0.668692 1.19889 0.277154 0.669669 -3.9323 14.9557 4.11142 -0.696877 -11.9792 4.38224 -5.27826 0 7.05208 -71.2647 11.8611 0.541896 0 30.5661 0 -0.205601 -0.103354 -63.3119 0 -0.375366 0 34.0491 -0.823305 -2.68834 -3.74468 -0.100483 -5.34865 0.688062 0.0240271 1.99986 1.69587 0 0 0 0 0 -15.9672 -0.55038 0.473945 -15.9778 0 0 -15.9793 0 0 0 0 0 -27.9887 -0.938892 2.15606 -28.0057 0 0 -28.003 0 0 0 0 0 -39.9859 -1.28551 1.73017 -40.002 0 0 -40.0006 0 0 0 0 0 -47.9657 -1.48576 1.15903 -47.9704 0 0 -47.9933 0 0 0 0 0 4.16161 -3.38871e-016 -2.67974 62.0903 15.4476 14.0313 4.54555e-015 32.9367 -1.34372e-015 -0.829409 0.288292 70.8345 -7.40326e-006 1.28213 -2.70946e-006 -19.8512 0.283814 -1.62173 3.74491 -0.100338 5.34924 -0.685636 0.0239424 -1.99986 -1.60632 0 0 0 0 0 15.9669 -0.550369 -0.47389 15.9778 0 0 15.9793 0 0 0 0 0 27.9567 -0.937906 -0.160277 27.9586 0 0 27.9429 0 0 0 0 0 39.9542 -1.28466 0.26552 39.9415 0 0 39.9253 0 0 0 0 0 47.914 -1.48455 0.839267 47.8656 0 0 47.8954 0 0 0 0 0 
-37.8122 98.2842 142.037 -1.34749 0.599807 -22.558 22.0974 -16.5137 18.5703 2.2465e-017 -3.96384e-016 6.48751 1.10035e-007 43.6423 -3.16908 1.20789e-017 2.9087e-016 -4.75588 -2.16545 5.6472 0.106816 -7.56438 -12.5604 -1.65418 -3.25669 -6.7436 -0.345629 3.24821e-018 -1.50932e-016 2.46575 -4.63472e-008 20.1725 3.76522 1.70433e-017 -3.45389e-016 5.64997 2.60121 -12.1966 0.273387 0.170136 -0.0474459 0.000140887 0.741301 0.232203 0.673847 1.48932 0.356598 0.674971 1.48992 0.352039 0.676113 1.49044 0.347502 0.677375 -4.17771 16.1108 4.00995 -0.480094 -12.2056 3.98296 -5.10785 0 7.04604 -71.7108 12.4177 -0.0429235 0 30.8565 0 -0.13462 -0.0577621 -66.7771 0 -0.251709 0 34.1898 -1.41333 -4.59331 -3.74468 -0.100483 -5.34865 0.688062 0.0240271 1.99986 1.69587 0 0 0 0 0 -15.9672 -0.55038 0.473945 -15.9778 0 0 -15.9793 0 0 0 0 0 -27.9887 -0.938892 2.15606 -28.0057 0 0 -28.003 0 0 0 0 0 -39.9859 -1.28551 1.73017 -40.002 0 0 -40.0006 0 0 0 0 0 -47.9657 -1.48576 1.15903 -47.9704 0 0 -47.9933 0 0 0 0 0 4.53025 -3.60403e-016 -2.8353 61.4024 15.353 14.5345 4.55475e-015 32.9896 -1.34873e-015 -0.818966 0.314057 69.0206 -7.40328e-006 1.28166 -2.70946e-006 -20.6309 0.30686 -1.68578 3.74491 -0.100338 5.34924 -0.685636 0.0239424 -1.99986 -1.60632 0 0 0 0 0 15.9669 -0.550369 -0.47389 15.9778 0 0 15.9793 0 0 0 0 0 27.9567 -0.937906 -0.160277 27.9586 0 0 27.9429 0 0 0 0 0 39.9542 -1.28466 0.26552 39.9415 0 0 39.9253 0 0 0 0 0 47.914 -1.48455 0.839267 47.8656 0 0 47.8954 0 0 0 0 0 
-38.1899 98.2939 141.841 -0.846094 1.04914 -22.1614 22.3734 -18.2286 18.4155 1.71192e-017 -3.46155e-016 5.66254 1.75422e-007 44.5378 -3.92783 1.85467e-017 3.60262e-016 -5.8941 -1.2767 3.23089 0.036008 -7.41105 -4.67568 -0.607484 -3.17299 -7.5662 -0.165713 3.85537e-018 -1.64427e-016 2.68637 -2.29899e-007 20.6163 3.42332 1.40916e-017 -3.14125e-016 5.13711 2.4612 -12.3048 0.260769 0.160144 -0.0838048 0.000234239 0.694563 0.163313 0.725757 1.38982 0.243267 0.763909 1.39015 0.238792 0.764791 1.39039 0.234335 0.765781 -4.29473 18.2939 4.08007 -0.212497 -12.8495 3.86389 -4.92667 0 7.07725 -72.3998 12.4604 0.137643 0 30.716 0 -0.113829 -0.0423955 -69.5722 0 -0.215635 0 33.9503 -1.9884 -6.50752 -3.74468 -0.100483 -5.34865 0.688062 0.0240271 1.99986 1.69587 0 0 0 0 0 -15.9672 -0.55038 0.473945 -15.9778 0 0 -15.9793 0 0 0 0 0 -27.9887 -0.938892 2.15606 -28.0057 0 0 -28.003 0 0 0 0 0 -39.9859 -1.28551 1.73017 -40.002 0 0 -40.0006 0 0 0 0 0 -47.9657 -1.48576 1.15903 -47.9704 0 0 -47.9933 0 0 0 0 0 4.72639 -3.79164e-016 -2.98021 61.0872 15.0991 13.9095 4.57489e-015 33.1052 -1.35971e-015 -0.792727 0.311123 68.5728 -7.40509e-006 1.2435 -2.70942e-006 -20.0085 0.124309 -0.704619 3.74491 -0.100338 5.34924 -0.685636 0.0239424 -1.99986 -1.60632 0 0 0 0 0 15.9669 -0.550369 -0.47389 15.9778 0 0 15.9793 0 0 0 0 0 27.9567 -0.937906 -0.160277 27.9586 0 0 27.9429 0 0 0 0 0 39.9542 -1.28466 0.26552 39.9415 0 0 39.9253 0 0 0 0 0 47.914 -1.48455 0.839267 47.8656 0 0 47.8954 0 0 0 0 0 
-38.3526 98.4797 141.751 -0.324857 1.03031 -21.5081 20.6713 -18.4324 16.6141 1.13247e-017 -2.81658e-016 4.60494 7.25609e-008 42.0997 -3.74453 1.68567e-017 3.43497e-016 -5.61892 1.92641 -2.79724 0.0470368 -0.933887 -0.367476 -0.00599013 -3.58766 -7.16002 -0.323051 4.21672e-018 -1.71956e-016 2.80947 -8.07617e-008 19.5686 3.12439 1.17399e-017 -2.86766e-016 4.68864 2.56293 -11.9061 0.262729 0.189093 -0.000250672 8.27295e-007 0.614708 0.201486 0.680881 1.23822 0.305745 0.694274 1.2387 0.301741 0.69522 1.23912 0.297752 0.696254 -4.52476 20.4067 4.09336 -0.034474 -13.1262 3.5914 -4.89439 0 7.06386 -72.3602 12.3982 0.147012 0 30.6447 0 -0.0815181 -0.0251996 -72.8221 0 -0.163139 0 33.7271 -2.04602 -6.74261 -3.74468 -0.100483 -5.34865 0.688062 0.0240271 1.99986 1.69587 0 0 0 0 0 -15.9672 -0.55038 0.473945 -15.9778 0 0 -15.9793 0 0 0 0 0 -27.9887 -0.938892 2.15606 -28.0057 0 0 -28.003 0 0 0 0 0 -39.9859 -1.28551 1.73017 -40.002 0 0 -40.0006 0 0 0 0 0 -47.9657 -1.48576 1.15903 -47.9704 0 0 -47.9933 0 0 0 0 0 4.9218 -4.06193e-016 -3.19646 60.6372 15.1697 13.5175 4.67109e-015 33.653 -1.41264e-015 -0.792074 0.314583 68.3402 -7.40504e-006 1.24447 -2.70942e-006 -19.9114 0.0905487 -0.515798 3.74491 -0.100338 5.34924 -0.685636 0.0239424 -1.99986 -1.60632 0 0 0 0 0 15.9669 -0.550369 -0.47389 15.9778 0 0 15.9793 0 0 0 0 0 27.9567 -0.937906 -0.160277 27.9586 0 0 27.9429 0 0 0 0 0 39.9542 -1.28466 0.26552 39.9415 0 0 39.9253 0 0 0 0 0 47.914 -1.48455 0.839267 47.8656 0 0 47.8954 0 0 0 0 0 
-38.3901 98.7298 141.689 -0.294399 1.55447 -20.8671 19.3492 -18.2182 15.1286 7.35527e-018 -2.27055e-016 3.71081 -1.5103e-007 37.5475 -2.63553 8.35478e-018 2.41974e-016 -3.955 1.92497 -4.44676 0.0747421 -4.29059e-007 -1.04696e-007 -7.84016e-016 -3.29278 -6.49601 -0.049602 4.62973e-018 -1.80175e-016 2.94387 -1.39893e-007 17.1959 2.67512 8.60835e-018 -2.45614e-016 4.0146 2.63647 -10.6675 0.241645 0.025729 -0.127465 5.7239e-005 0.640238 0.14607 0.66056 1.29011 0.215045 0.664048 1.29041 0.211007 0.664819 1.29065 0.206984 0.665679 -5.3179 21.9757 4.10563 0.349726 -12.9121 2.91665 -4.89837 0 6.87724 -72.3217 12.3897 0.15273 0 30.6517 0 -0.0483335 -0.0128632 -75.0971 0 -0.11141 0 33.3227 -2.1087 -7.03786 -3.74468 -0.100483 -5.34865 0.688062 0.0240271 1.99986 1.69587 0 0 0 0 0 -15.9672 -0.55038 0.473945 -15.9778 0 0 -15.9793 0 0 0 0 0 -27.9887 -0.938892 2.15606 -28.0057 0 0 -28.003 0 0 0 0 0 -39.9859 -1.28551 1.73017 -40.002 0 0 -40.0006 0 0 0 0 0 -47.9657 -1.48576 1.15903 -47.9704 0 0 -47.9933 0 0 0 0 0 4.73818 -4.34602e-016 -3.45962 60.6478 15.356 12.566 4.7937e-015 34.3411 -1.4812e-015 -0.795524 0.325325 67.7596 -7.40452e-006 1.25541 -2.70943e-006 -20.6375 0.00523851 -0.0287156 3.74491 -0.100338 5.34924 -0.685636 0.0239424 -1.99986 -1.60632 0 0 0 0 0 15.9669 -0.550369 -0.47389 15.9778 0 0 15.9793 0 0 0 0 0 27.9567 -0.937906 -0.160277 27.9586 0 0 27.9429 0 0 0 0 0 39.9542 -1.28466 0.26552 39.9415 0 0 39.9253 0 0 0 0 0 47.914 -1.48455 0.839267 47.8656 0 0 47.8954 0 0 0 0 0 
-38.2379 98.9586 141.639 -0.0824695 1.93742 -20.9294 17.2531 -16.6851 13.4754 6.60028e-018 -2.15098e-016 3.51514 -1.10101e-008 30.4269 -0.889923 9.53724e-019 8.17978e-017 -1.33602 2.43071 -4.47225 0.0949257 -4.29058e-007 -1.04696e-007 -7.84013e-016 -3.47842 -5.90324 -0.0481513 5.12384e-018 -1.89539e-016 3.09702 -4.68729e-008 14.7795 2.58086 8.01254e-018 -2.36972e-016 3.87312 2.89167 -9.30182 0.230776 -0.0819238 -0.179212 -0.000256245 0.616373 0.166203 0.698523 1.27365 0.249585 0.731066 1.27401 0.245534 0.731865 1.2743 0.241496 0.732754 -6.04702 22.3548 4.234 0.468464 -12.6936 2.63932 -5.07865 0 6.64561 -72.2299 12.1597 0.485136 0 30.5454 0 -0.0198625 -0.00463031 -76.8777 0 -0.0680243 0 33.1299 -2.28411 -7.6686 -3.74468 -0.100483 -5.34865 0.688062 0.0240271 1.99986 1.69587 0 0 0 0 0 -15.9672 -0.55038 0.473945 -15.9778 0 0 -15.9793 0 0 0 0 0 -27.9887 -0.938892 2.15606 -28.0057 0 0 -28.003 0 0 0 0 0 -39.9859 -1.28551 1.73017 -40.002 0 0 -40.0006 0 0 0 0 0 -47.9657 -1.48576 1.15903 -47.9704 0 0 -47.9933 0 0 0 0 0 4.34673 -4.23631e-016 -3.39719 61.0039 15.3179 11.4815 4.83499e-015 34.5704 -1.50456e-015 -0.733912 0.316299 66.6863 -7.40878e-006 1.16536 -2.70934e-006 -20.3948 -0.110486 0.614268 3.74491 -0.100338 5.34924 -0.685636 0.0239424 -1.99986 -1.60632 0 0 0 0 0 15.9669 -0.550369 -0.47389 15.9778 0 0 15.9793 0 0 0 0 0 27.9567 -0.937906 -0.160277 27.9586 0 0 27.9429 0 0 0 0 0 39.9542 -1.28466 0.26552 39.9415 0 0 39.9253 0 0 0 0 0 47.914 -1.48455 0.839267 47.8656 0 0 47.8954 0 0 0 0 0 
